<svg xmlns="http://www.w3.org/2000/svg" width="69.06" height="69.062" viewBox="0 0 69.06 69.062">
  <g id="LogoTheBard" transform="translate(-0.003 0.001)">
    <path id="Tracé_38" data-name="Tracé 38" d="M248.545,105.917a4.245,4.245,0,1,0-3,7.246A4.283,4.283,0,0,0,248.545,105.917Zm-1.434,4.57a2.015,2.015,0,0,1-1.567.653c-2.887,0-2.808-4.443,0-4.443C247.625,106.7,248.211,109.253,247.112,110.487Z" transform="translate(-209.33 -90.569)" fill="#ee2b47"/>
    <path id="Tracé_39" data-name="Tracé 39" d="M326.174,73a4.28,4.28,0,0,0-3,7.246,4.222,4.222,0,0,0,3,1.252,4.279,4.279,0,0,0,3-7.246A4.216,4.216,0,0,0,326.174,73Zm1.57,5.815a2.2,2.2,0,0,1-3.754-1.768,2.213,2.213,0,1,1,3.754,1.771Z" transform="translate(-279.072 -63.154)" fill="#ee2b47"/>
    <path id="Tracé_40" data-name="Tracé 40" d="M70.938,2.128A7.08,7.08,0,0,0,67.079.269c-3.469-.7-8.011-.034-13.5,1.983a1.012,1.012,0,1,0,.7,1.9C57.7,2.893,62.587,1.533,66.416,2.2A5.525,5.525,0,0,1,69.439,3.49a.515.515,0,0,0,.143.143c.72.645,1.9,3.078,1.285,7.743-1.337,10.087-9.8,23.605-16.668,33.161-3.237,4.5-12.33,14.067-15.306,16.9-4.2,4-9.139,5.922-14.283,5.556a19.932,19.932,0,0,1-12.573-5.961A19.924,19.924,0,0,1,6.076,48.46c-.366-5.145,1.557-10.084,5.556-14.283l.013-.015a4.5,4.5,0,0,0,.8-5.027L8.481,20.864A3.615,3.615,0,0,1,13.3,16.043l9.172,4.391a4.489,4.489,0,0,0,4.693-.519c.506-.4.968-.751,1.375-1.043A131.083,131.083,0,0,1,50.3,5.788a1.014,1.014,0,1,0-.834-1.848A132.933,132.933,0,0,0,27.358,17.229c-.43.309-.919.674-1.449,1.1a2.452,2.452,0,0,1-2.563.282l-9.17-4.391a5.638,5.638,0,0,0-7.52,7.52l3.963,8.275a2.466,2.466,0,0,1-.436,2.753l-.013.015C5.764,37.405,3.655,42.876,4.062,48.6a21.926,21.926,0,0,0,6.547,13.86,21.917,21.917,0,0,0,13.861,6.549q.7.051,1.388.05A20.749,20.749,0,0,0,40.291,62.9c3.1-2.955,12.2-12.513,15.552-17.186,10.4-14.475,16.15-26.107,17.094-34.576C73.629,4.943,71.454,2.591,70.938,2.128Z" transform="translate(-4.01 0)" fill="#ee2b47"/>
    <path id="Tracé_41" data-name="Tracé 41" d="M96.632,273.794a4.245,4.245,0,1,0,0,6A4.245,4.245,0,0,0,96.632,273.794Zm-1.43,4.573a2.243,2.243,0,0,1-3.143,0c-2.023-2.023,1.118-5.166,3.143-3.142A2.224,2.224,0,0,1,95.2,278.366Z" transform="translate(-77.867 -235.787)" fill="#ee2b47"/>
    <path id="Tracé_42" data-name="Tracé 42" d="M93.818,347.259a4.214,4.214,0,1,0,3,1.212,4.254,4.254,0,0,0-3-1.212Zm1.571,5.784a2.222,2.222,0,1,1,0-3.142A2.222,2.222,0,0,1,95.39,353.043Z" transform="translate(-78.054 -300.419)" fill="#ee2b47"/>
    <path id="Tracé_43" data-name="Tracé 43" d="M410.639,67.726a4.245,4.245,0,1,0-6,0A4.286,4.286,0,0,0,410.639,67.726Zm-4.57-4.573a2.222,2.222,0,1,1,1.571,3.793A2.243,2.243,0,0,1,406.069,63.153Z" transform="translate(-349.55 -52.323)" fill="#ee2b47"/>
    <path id="Tracé_44" data-name="Tracé 44" d="M252.749,309.158a1.01,1.01,0,0,0,0,1.43l1.455,1.455a1.025,1.025,0,0,0,1.431,0,1.01,1.01,0,0,0,0-1.43l-1.455-1.455A1.012,1.012,0,0,0,252.749,309.158Z" transform="translate(-218.939 -267.201)" fill="#ee2b47"/>
    <path id="Tracé_45" data-name="Tracé 45" d="M372.009,189.9a1.01,1.01,0,0,0,0,1.43l1.455,1.457a1.012,1.012,0,0,0,1.431-1.431L373.44,189.9A1.012,1.012,0,0,0,372.009,189.9Z" transform="translate(-322.112 -164.027)" fill="#ee2b47"/>
    <path id="Tracé_46" data-name="Tracé 46" d="M308.471,248.525a1.009,1.009,0,0,0-1.079.944c-.051.745.6,1.087,1.244,1.087a4.81,4.81,0,0,0,4.744-5.057,1.014,1.014,0,0,0-2.023.135,2.783,2.783,0,0,1-2.885,2.891Z" transform="translate(-266.465 -211.566)" fill="#ee2b47"/>
  </g>
</svg>
