<svg xmlns="http://www.w3.org/2000/svg" width="31.082" height="31.082" viewBox="0 0 31.082 31.082">
  <path id="Tracé_50" data-name="Tracé 50" d="M27.936,11.619a.576.576,0,0,0-.384-.229l-3.346-.512a11.016,11.016,0,0,0-.749-1.792q.329-.457.987-1.289t.932-1.216a.7.7,0,0,0,.146-.421.588.588,0,0,0-.128-.4,24.981,24.981,0,0,0-3.016-3.108.705.705,0,0,0-.457-.183.593.593,0,0,0-.439.164l-2.6,1.956a11.3,11.3,0,0,0-1.645-.677L16.729.548a.542.542,0,0,0-.21-.393A.69.69,0,0,0,16.07,0H12.012a.615.615,0,0,0-.658.512,29.853,29.853,0,0,0-.53,3.4,10.461,10.461,0,0,0-1.664.695L6.636,2.651a.778.778,0,0,0-.475-.183q-.4,0-1.728,1.307a18.218,18.218,0,0,0-1.8,1.965.77.77,0,0,0-.164.421.686.686,0,0,0,.183.439Q3.876,8.081,4.607,9.123A9.016,9.016,0,0,0,3.894,10.8l-3.4.512a.551.551,0,0,0-.347.238.7.7,0,0,0-.146.42v4.059a.69.69,0,0,0,.146.43.576.576,0,0,0,.384.229l3.346.494A9.03,9.03,0,0,0,4.626,19q-.329.457-.987,1.289T2.706,21.5a.706.706,0,0,0-.146.421.715.715,0,0,0,.128.42A24.09,24.09,0,0,0,5.7,25.413a.63.63,0,0,0,.457.2.658.658,0,0,0,.457-.164L9.2,23.493a11.341,11.341,0,0,0,1.646.677l.512,3.364a.544.544,0,0,0,.21.393.689.689,0,0,0,.448.155h4.059a.615.615,0,0,0,.659-.512,29.956,29.956,0,0,0,.53-3.4,10.441,10.441,0,0,0,1.664-.7l2.523,1.975a.893.893,0,0,0,.475.164q.4,0,1.718-1.3a18.457,18.457,0,0,0,1.81-1.975.61.61,0,0,0,.165-.42.7.7,0,0,0-.183-.457q-1.316-1.609-1.956-2.523a11.72,11.72,0,0,0,.713-1.664l3.382-.512a.557.557,0,0,0,.366-.238.706.706,0,0,0,.146-.421V12.048A.687.687,0,0,0,27.936,11.619ZM17.35,17.35a4.508,4.508,0,0,1-3.309,1.371,4.682,4.682,0,0,1-4.68-4.68,4.681,4.681,0,0,1,4.68-4.68,4.681,4.681,0,0,1,4.68,4.68A4.508,4.508,0,0,1,17.35,17.35Z" transform="translate(1.5 1.5)" fill="none" stroke="#f6f6f6" stroke-width="3"/>
</svg>
