<svg xmlns="http://www.w3.org/2000/svg" xmlns:xlink="http://www.w3.org/1999/xlink" width="1920" height="4000" viewBox="0 0 1920 4000">
  <defs>
    <clipPath id="clip-path">
      <rect id="Rectangle_82" data-name="Rectangle 82" width="1920" height="4000" transform="translate(14388 -22684)" fill="#fff" stroke="#707070" stroke-width="1"/>
    </clipPath>
  </defs>
  <g id="background_element" data-name="background element" transform="translate(-14388 22684)" clip-path="url(#clip-path)">
    <path id="Union_10" data-name="Union 10" d="M3466,4821V4654h168v167Zm-1387,0V4654h168v167Zm-1386,0V4654H861v167Zm2417.457-176H2930.809v-147.51h-86.655v-75.166H2773v-44.3H2565.835V4436H2452V4322.17h86.965V4144H2773v168.221h107.086v71.638h50.723V4206H3164v233.615h0v0H2957.582v21.173h152.877V4645Zm-1566.648,0v-147.51h-86.656v-75.166H1386v-44.3H1179.835V4436H1066V4322.17h86.965V4144H1387v168.221h106.084v71.638h50.724V4206H1777v233.615h0v0H1570.582v21.173h152.875V4645Zm-1386,0v-147.51H71.154v-75.166H0v-110.1H107.086v71.638h50.723V4206H391v233.616H184.582v21.173H337.458V4645ZM3839,4436V4322.169h86.966V4144H4160v234.025H3952.835V4436H3839Zm-254.811-231v-56.766H3384.844V4023.068H3288V3857h166.475v57.823h164.353v176.644H3698V4205h0v0Zm-1387,0v-56.766H1997.844V4023.068H1901V3857h166.475v57.824h164.354v176.644H2311V4205Zm-1386,0v0h0v-56.763H611.845V4023.068H515V3857H681.475v57.823H845.829v176.644H925V4205ZM2773,3857h0V3690h166v167Zm-1387,0V3690h167v167Zm850.809-176h0V3533.491h-86.655v-75.167H2079v-44.3H1873.834V3472H1760V3358.169h86.966V3180H2081v168.221h105.086v71.636h50.723V3242H2470v233.617H2263.58v21.171h152.875v0h0V3681Zm-1207.352,0H849.808V3533.491H763.154v-75.167H692v-110.1H799.086v71.636h50.722V3242H1083v233.617H876.58v21.171h152.88V3681ZM3146,3472V3358.169h86.967V3180H3467v234.024H3259.835V3472Zm-141-232H2891.189v-56.765H2691.844V3058.069H2595V2892h0v0h166.473v0h0v57.821h164.354v176.646H3005V3240Zm-1500.811,0h0v-56.765H1304.845V3058.069H1208V2892h166.474v0h0v57.821h164.352v176.645H1618V3240ZM3466,2892V2726h168v166h0v0Zm-1387,0v0h0V2726h168v166Zm-1386,0V2726H861v166Zm2237.809-175V2569.489h-86.655v-75.163H2773v-44.3H2565.835V2508h0v0H2452v0h0V2394.168h86.965V2216H2773V2384.22h107.086v71.636h50.723V2278H3164v233.615H2957.582v21.174h152.875v0h0V2717Zm-1387,0V2569.489h-86.656v-75.163H1386v0h0v-44.3H1179.835V2508h0v0H1066v0h0V2394.168h86.965V2216H1387V2384.22h106.084v71.636h50.724V2278H1777v233.615H1570.582v21.174h152.875V2717h0v0Zm-1386,0v0h0V2569.489H71.154v-75.163H0V2384.22H107.086v71.636h50.723V2278H391v233.615H184.582v21.174H337.458V2717h0v0ZM3839,2508V2394.168h86.966V2216H4160v234.025h0v0H3952.835V2508h0v0Zm-141-232H3584.189v-56.767H3384.844V2094.066H3288V1928h166.475v57.824h164.353v176.645H3698V2276Zm-1500.81,0v-56.767H1997.844V2094.066H1901V1928h166.475v57.823h164.354v176.645H2311V2276Zm-1386,0h0v-56.767H611.845V2094.066H515V1928H681.475v57.824H845.829v176.645H925V2276ZM2773,1928V1761h166v167H2773Zm-1387,0V1761h167v167H1386Zm850.809-178h0V1602.492h-86.655v-75.167H2079v-42.3H1873.834V1543H1760V1429.168h86.966V1251H2081v166.223h105.086v71.635h50.723V1311H2470v233.615H2263.58v21.172h152.877V1750Zm-1387,0V1602.492H763.154v-75.167H692v-110.1H799.086v71.635h50.722V1311H1083v233.615H876.58v21.172h152.88V1750H849.808ZM3146,1543V1429.168h86.967V1251H3467v234.025H3259.835V1543ZM2891.19,1313h0v-56.764H2691.844V1131.067H2595V965h166.475v57.823h164.354v176.643H3005V1313Zm-1387,0v-56.765H1304.845V1131.067H1208V965h166.475v57.823h164.352v176.645H1618V1313H1504.187ZM3466,965V798h168V965Zm-1387,0V797h168V965ZM693,965V798H861V965ZM2930.81,789V641.491h-86.655V566.325H2773v-45.3H2565.835V579H2452V465.169h86.965V287H2773v169.22h107.084v71.637h50.726V350H3164V583.616H2957.582v21.172h152.874V789Zm-2773,0V641.491H71.154V566.325H0V456.22H107.086v71.637h50.723V350H391V583.616H184.582v21.172H337.457V789Zm1386-1V640.49h-86.656V565.323H1386v-43.3H1179.835V580H1066V466.171h86.965V288H1387V455.22h106.085v71.638h50.724V349H1777v233.62H1570.582v21.171h152.875V788ZM3839,580V466.171h86.965V288H4160V522.025h-207.17V580ZM3584.188,349h0V292.236H3384.845V167.07H3288V1h166.475V58.822h164.353v0h0V235.468H3698v0h0V349H3584.188Zm-2773,0h0V292.236H611.843V167.07H515V1H681.475V58.822H845.829v0h0V235.468H925v0h0V349H811.189Zm1386-1V291.234H1997.844V166.066H1901V0h166.475V57.823h164.354V234.466H2311V348Z" transform="translate(13267.5 -22684)" fill="#393c53"/>
  </g>
</svg>
